# xmcd
#
# Track frame offsets: 
#        150
#        25798
#        43080
#        60581
#        82031
#        96433
#        111917
#        125064
#        142840
#        163122
#        178111
#        192395
#        206458
#        221616
#
# Disc length: 3343 seconds
#
# Revision: 1
# Processed by: cddbd v1.5.2PL0 Copyright (c) Steve Scherf et al.
# Submitted via: ExactAudioCopyFreeDBPlugin 1.0
#
DISCID=ce0d0d0e
DTITLE=Broliai Aliukai - Graziausios dainos 1
DYEAR=2002
DGENRE=Pop
TTITLE0=Popuri Nr. 1
TTITLE1=Burkuoja balandziai
TTITLE2=Lauko gele
TTITLE3=Cigones akys
TTITLE4=Uzia vejas
TTITLE5=Plauks laivelis
TTITLE6=Nekaltink, miela
TTITLE7=Roze
TTITLE8=Jureivio kajute
TTITLE9=Vingiuotas kelias
TTITLE10=Piemenaite
TTITLE11=Dzukija
TTITLE12=Berzelis
TTITLE13=Popuri Nr. 2
EXTD=
EXTT0=
EXTT1=
EXTT2=
EXTT3=
EXTT4=
EXTT5=
EXTT6=
EXTT7=
EXTT8=
EXTT9=
EXTT10=
EXTT11=
EXTT12=
EXTT13=
PLAYORDER=
